<?xml version="1.0" encoding="UTF-8"?>
<svg id="Layer_1" xmlns="http://www.w3.org/2000/svg" viewBox="0 0 66.07 70.68">
  <defs>
    <style>
      .cls-1 {
        fill: #fff;
      }

      .cls-2 {
        fill: none;
        stroke: #fdc614;
        stroke-miterlimit: 10;
        stroke-width: 3px;
      }
    </style>
  </defs>
  <path class="cls-1" d="M36.99,2.43c.51.11,1.03.2,1.54.32,6.31,1.5,10.54,6.83,10.61,13.37,0,.23.02.47,0,.7-.06.88-.04,1.61.94,2.12.81.42,1.13,1.33,1.13,2.28,0,1.78.01,3.56,0,5.33-.01,1.68-1.33,3-3.03,3.03-1.08.02-2.15,0-3.3,0-.29,2.39-1.16,4.53-2.74,6.46.28.01.46.03.64.03,1.44,0,2.88,0,4.32,0,1.79,0,3.07,1.29,3.09,3.08.01,1.23.02,2.46,0,3.68,0,.37.12.55.44.74,3.05,1.78,4.72,4.44,4.78,7.98.07,4.27.03,8.55.01,12.82,0,1.8-1.32,3.05-3.12,3.05-12.57,0-25.14,0-37.71,0-1.8,0-3.12-1.25-3.13-3.04-.02-4.32-.06-8.64.02-12.95.07-3.47,1.75-6.07,4.71-7.82.4-.24.51-.47.5-.89-.02-1.16-.01-2.33,0-3.49.01-1.88,1.28-3.15,3.14-3.16,1.38,0,2.75,0,4.13,0,.2,0,.41,0,.74,0-1.6-1.94-2.47-4.06-2.71-6.49-1,0-1.99,0-2.98,0-2.1,0-3.35-1.25-3.35-3.35,0-1.65,0-3.3,0-4.95,0-1.21.55-2.13,1.59-2.69.42-.23.5-.48.49-.89-.05-2.06,0-4.11.73-6.07,1.94-5.15,5.61-8.21,11.06-9.1.12-.02.23-.08.35-.12,2.37,0,4.74,0,7.11,0ZM48.22,61.31c.02-.23.04-.42.04-.6,0-7.09,0-14.17,0-21.26,0-1.11-.37-1.46-1.51-1.46-8.86,0-17.73,0-26.59,0-1.2,0-1.54.34-1.54,1.55,0,7.02,0,14.05,0,21.07,0,.23.02.45.03.7h29.58ZM25.39,16.09c-1,.38-1.49,1.1-1.5,2.2,0,3.49-.02,6.98,0,10.47.02,2.8,1.13,5.12,3.19,6.99.21.19.56.32.84.32,3.66.02,7.32.02,10.98,0,.26,0,.59-.12.78-.29,1.93-1.72,3.13-3.89,3.23-6.46.14-3.76.05-7.53.04-11.3,0-.91-.61-1.62-1.51-1.92-.07.17-.15.34-.22.51-1.04,2.41-2.84,3.96-5.41,4.41-1.3.23-2.66.22-3.98.1-3.06-.27-5.16-1.91-6.3-4.77-.04-.1-.1-.18-.15-.27ZM24.08,14.48c.78-.28.74-.3,1.16-1.01.14-.24.47-.45.74-.5.67-.12,1.05.33,1.09,1.21.13,2.39,1.74,4.41,4.08,4.86,1.17.23,2.4.18,3.6.15,2.4-.06,4.39-1.75,4.93-4.09.1-.45.1-.92.19-1.38.09-.46.37-.75.87-.78.45-.03.88.15.93.59.08.72.64.71,1.08.93.03-.05.06-.07.06-.08,0-.06-.02-.12-.03-.18-.78-2.85-2.59-4.74-5.46-5.42-2.28-.54-4.63-.35-6.94-.15-3.03.26-5.71,2.78-6.28,5.84ZM47.3,18.15c-.14-1.63-.12-3.25-.44-4.8-.98-4.75-5.18-8.46-10.02-8.9-1.78-.16-3.59-.12-5.39-.12-2.94,0-5.57.94-7.78,2.89-3.3,2.91-4.34,6.65-3.92,10.92h2.25c0-1.03-.05-2.02,0-3.01.23-4.08,3.75-7.91,7.83-8.35,1.97-.21,3.97-.16,5.95-.14,4.72.03,8.8,3.93,9.07,8.64.06.94,0,1.89,0,2.87h2.43ZM17.58,63.28c0,.18-.02.28-.02.39-.02,1.63.22,1.88,1.84,1.88,9.41,0,18.82,0,28.23,0,.21,0,.43.02.63,0,.54-.07.92-.37,1.01-.9.07-.44.01-.91.01-1.35h-31.71ZM21.9,27.66v-7.53c-1.12,0-2.2-.03-3.27.01-.67.03-1.06.5-1.07,1.19-.02,1.71-.02,3.42,0,5.14,0,.68.41,1.15,1.08,1.18,1.07.05,2.14.01,3.26.01ZM44.96,27.67c1.1,0,2.14.03,3.17,0,.72-.02,1.16-.47,1.17-1.16.02-1.73.02-3.47,0-5.2,0-.64-.37-1.11-.97-1.14-1.11-.05-2.22-.02-3.37-.02v7.52ZM16.63,54.99v-9.32s-.09-.05-.14-.08c-.55.58-1.15,1.12-1.65,1.74-1.83,2.29-1.48,4.99-1.45,7.66h3.24ZM50.23,45.59v9.37h3.26c0-1.29.08-2.55-.02-3.78-.18-2.32-1.26-4.17-3.25-5.59ZM15.66,65.52c0-.86-.05-1.64.02-2.41.03-.37.18-.87.46-1.06.6-.43.55-.97.55-1.56,0-.65,0-1.31,0-1.96v-1.54h-3.32c0,2.21.06,4.36-.02,6.52-.07,2.1.7,2.09,2.16,2.04.08,0,.16-.02.16-.02ZM51.22,65.54c.2,0,.49,0,.78,0,1.12,0,1.51-.4,1.51-1.53,0-1.8,0-3.59,0-5.39v-1.65h-3.32c0,1.47,0,2.91.01,4.34,0,.15.15.33.28.44.49.43.75.95.74,1.61-.01.71,0,1.42,0,2.19Z"/>
  <rect class="cls-2" x="18" y="37.59" width="31.31" height="24.48" rx="1.24" ry="1.24"/>
  <rect class="cls-2" x="16.89" y="62.06" width="33.18" height="4.29" rx="1.95" ry="1.95"/>
</svg>