<?xml version="1.0" encoding="UTF-8"?>
<svg id="Layer_1" xmlns="http://www.w3.org/2000/svg" viewBox="0 0 66.07 70.68">
  <defs>
    <style>
      .cls-1 {
        fill: #fff;
      }

      .cls-2 {
        fill: #fdc614;
      }
    </style>
  </defs>
  <path class="cls-1" d="M25.18,58.31c.19-1.18.38-2.34.57-3.5.76-4.74,1.51-9.48,2.28-14.21.21-1.3,1.28-2.33,2.57-2.36,2.43-.05,4.86-.01,7.32-.01,1.18,3.49,3.36,6.13,6.67,7.75,3.29,1.61,6.7,1.74,10.24.51-.14.89-.26,1.73-.39,2.57-.67,4.17-1.33,8.34-2.01,12.5-.25,1.52-1.36,2.49-2.89,2.49-12.18,0-24.36,0-36.54,0-1.68,0-2.9-1.24-2.92-2.91,0-.56,0-1.12,0-1.67,0-.83.36-1.15,1.24-1.15,4.39,0,8.77,0,13.16,0h.7ZM37.83,50.66c0,1.58,1.31,2.87,2.91,2.86,1.55-.01,2.84-1.32,2.83-2.88-.01-1.57-1.29-2.85-2.85-2.86-1.59,0-2.89,1.29-2.89,2.88ZM12.02,60.24c-.09,1.69.09,1.89,1.68,1.89,3.4,0,6.81,0,10.21,0h.67c.1-.66.2-1.26.29-1.89h-12.85Z"/>
  <path class="cls-2" d="M29.22,20.12c0,.56,0,1.11,0,1.67-.01.75-.36,1.12-1.09,1.12-1.83,0-3.67.01-5.5,0-.7,0-1.06-.37-1.06-1.08,0-3.11,0-6.21,0-9.32,0-.71.37-1.07,1.07-1.07,1.83,0,3.67,0,5.5,0,.64,0,.98.35,1.1.92.95.21,1.56-.08,2.06-.94.82-1.41,1.8-2.72,2.69-4.09.32-.49.71-.72,1.29-.68.4.03.8,0,1.19,0,1.89.03,3.18,1.58,2.88,3.44-.12.74-.25,1.49-.38,2.3.73,0,1.41,0,2.08,0,2.03.02,3.33,1.61,2.91,3.59-.33,1.54-.66,3.07-1.01,4.6-.33,1.46-1.42,2.32-2.92,2.32-2.27,0-4.54,0-6.81,0-1.08,0-1.92-.45-2.53-1.34-.28-.41-.54-.84-.84-1.24-.12-.16-.33-.25-.5-.37l-.13.15ZM29.24,18.12c.18,0,.31.02.45,0,.73-.1,1.21.21,1.56.84.28.5.64.96.95,1.45.26.4.6.6,1.09.59,2.21-.01,4.42,0,6.63,0,.72,0,1-.22,1.16-.93.33-1.43.64-2.87.96-4.31.22-1.01-.14-1.45-1.19-1.46-.9,0-1.79,0-2.69,0-1.06,0-1.41-.42-1.23-1.45.18-1.02.35-2.04.51-3.06.08-.53-.07-.95-.6-1.16-.58-.23-1.38-.07-1.65.33-1.03,1.54-2.07,3.07-3.07,4.62-.34.53-.76.77-1.38.73-.49-.03-.98,0-1.5,0v3.83Z"/>
  <path class="cls-1" d="M22.07,24.78c-.35.54-.69,1.06-1.02,1.57-5.02-3.07-10.67-1.15-13.26,2.84-2.63,4.07-1.82,9.41,1.94,12.57,3.64,3.06,9.13,2.89,12.62-.39,3.61-3.39,3.77-8.63,1.57-11.95-.18.23-.32.45-.5.63-2.83,2.84-5.66,5.67-8.49,8.5-.86.86-1.2.86-2.07-.02-1.14-1.14-2.28-2.28-3.44-3.43.46-.46.89-.89,1.38-1.37,1.03,1.04,2.04,2.07,3.21,3.26.17-.25.27-.48.43-.65,2.91-2.92,5.83-5.84,8.75-8.75.81-.81,1.31-.77,1.98.15,5.04,7.01.65,17.03-7.93,18.04-6.21.73-11.89-3.54-12.77-9.61-.91-6.29,3.24-12.05,9.47-13.09,2.69-.45,5.23.03,7.6,1.38.17.1.33.21.53.33Z"/>
  <path class="cls-1" d="M42.6,33.43v1.89h-1.84c.18,1.94.89,3.58,2.09,5.1.34-.32.65-.61.99-.93.43.46.85.9,1.29,1.37-.26.28-.56.59-.89.94,1.49,1.2,3.14,1.9,5.06,2.09v-1.8h1.92v1.81c1.94-.19,3.58-.89,5.08-2.09-.33-.35-.63-.66-.94-.99.45-.44.88-.85,1.4-1.36.24.34.49.7.79,1.12,1.33-1.62,2.01-3.28,2.23-5.21h-1.82v-1.9h1.81c-.18-1.94-.89-3.58-2.08-5.09-.34.32-.65.61-.99.93-.43-.47-.83-.92-1.31-1.44.28-.21.62-.46,1.03-.77-1.58-1.32-3.25-1.99-5.17-2.2v1.81h-1.92v-1.87c-.87.2-1.66.38-2.54.58-.2-.51-.43-1.08-.67-1.69,1.1-.49,2.22-.7,3.37-.78,6.1-.44,11.51,4.07,12.18,10.13.79,7.09-4.85,13.1-11.99,12.79-5.88-.26-10.78-5.28-10.88-11.12-.02-.98.3-1.3,1.26-1.3.83,0,1.66,0,2.55,0Z"/>
  <path class="cls-2" d="M58.72,22.48c-.62.31-1.15.57-1.71.85-3.45-6.54-8.65-11.02-15.63-13.46.1-.34.19-.64.29-.93.09-.28.19-.56.3-.88,7.49,2.62,13.03,7.4,16.75,14.43Z"/>
  <path class="cls-2" d="M19.17,10.21c.13.21.22.37.31.52.2.36.4.73.63,1.14-4.8,2.71-8.47,6.5-11.01,11.44-.31-.15-.59-.28-.87-.41-.27-.13-.53-.27-.84-.43,2.7-5.28,6.6-9.34,11.79-12.26Z"/>
  <path class="cls-2" d="M15.59,55.67c-.43.51-.82.96-1.24,1.45-3.48-3.01-6.08-6.61-7.86-10.88.6-.25,1.17-.48,1.77-.72,1.66,3.95,4.08,7.31,7.34,10.15Z"/>
  <path class="cls-1" d="M49.31,28.68h1.91c0,1.95,0,3.88,0,5.81,0,.16-.08.37-.2.48-1.3,1.29-2.6,2.57-3.93,3.86-.41-.42-.82-.84-1.29-1.33.71-.7,1.37-1.48,2.15-2.1,1.1-.88,1.56-1.92,1.4-3.34-.12-1.1-.02-2.22-.02-3.37Z"/>
  <path class="cls-1" d="M42.56,31.51h-6.6v-1.86h6.6v1.86Z"/>
  <path class="cls-1" d="M39.77,25.8h5.67v1.86h-5.67v-1.86Z"/>
  <path class="cls-1" d="M37.79,27.66h-1.83v-1.84h1.83v1.84Z"/>
  <path class="cls-1" d="M32.13,29.63h1.84v1.84h-1.84v-1.84Z"/>
</svg>