<?xml version="1.0" encoding="UTF-8"?>
<svg id="Layer_1" xmlns="http://www.w3.org/2000/svg" viewBox="0 0 127.72 108.49">
  <defs>
    <style>
      .cls-1 {
        fill: #fff;
      }

      .cls-2 {
        fill: #fdc614;
      }
    </style>
  </defs>
  <path class="cls-1" d="M121.79,86.79c-.2.8-.38,1.6-.6,2.39-2.04,7.18-8.36,12.13-15.83,12.24-6.59.1-13.19.03-19.79.02-1.34,0-2.2-.73-2.18-1.77.02-1.04.85-1.69,2.25-1.69,6.37,0,12.74.02,19.11-.01,6.67-.03,11.73-4.01,13.29-10.39,1.79-7.31-3.56-15.08-11.01-15.97-1.01-.12-2.03-.19-3.04-.19-20.99-.01-41.99,0-62.98,0-1.81,0-2.65-.57-2.6-1.75.04-1.13.85-1.65,2.6-1.65,21.22,0,42.44,0,63.66,0,8.69,0,15.31,5.51,16.92,14.08.03.14.13.26.2.38v4.3Z"/>
  <path class="cls-2" d="M85.43,28.99c0-1.73-.02-3.47.01-5.2.01-.67-.18-1.1-.79-1.45-6.66-3.82-13.3-7.68-19.98-11.48-.41-.24-1.18-.21-1.62.02-1.96,1.04-3.86,2.19-5.79,3.29-1.22.69-2.2.51-2.73-.46-.5-.92-.14-1.82,1.02-2.5,2.05-1.2,4.11-2.37,6.16-3.57,1.43-.84,2.85-.85,4.28-.02,6.91,3.99,13.82,7.98,20.73,11.96,1.31.76,2.15,1.88,2.15,3.37-.02,4.93.42,9.88-.55,14.77-1.77,8.91-6.55,15.75-14.24,20.53-2.59,1.61-5.28,3.05-7.91,4.59-1.59.93-3.11.89-4.69-.04-2.68-1.6-5.46-3.05-8.09-4.74-9.36-5.99-14.13-14.64-14.56-25.7-.11-2.94-.01-5.88-.02-8.82,0-1.82.75-3.16,2.36-4.06,2.27-1.26,4.5-2.6,6.75-3.89,1.17-.67,2.22-.48,2.73.46.5.92.15,1.83-1.01,2.5-2.18,1.27-4.38,2.51-6.54,3.8-.34.2-.77.63-.77.96.02,4.07-.23,8.18.25,12.19,1.06,8.92,5.77,15.6,13.46,20.18,2.33,1.39,4.68,2.73,7.05,4.04.36.2.99.3,1.31.11,3.11-1.76,6.32-3.4,9.24-5.45,7.7-5.41,11.61-12.93,11.77-22.37.02-1.02,0-2.04,0-3.05Z"/>
  <path class="cls-1" d="M49.39,101.45c-8.67,0-17.34,0-26.01,0-8.18,0-14.7-4.77-16.83-12.29-2.95-10.44,5.02-21.07,15.85-21.13,3.09-.02,6.18,0,9.27,0,1.41,0,2.22.6,2.24,1.67.03,1.11-.78,1.71-2.29,1.73-3.58.05-7.18-.13-10.73.22-6.34.62-11.22,6.08-11.54,12.52-.31,6.27,4.12,12.1,10.32,13.47,1.24.27,2.54.33,3.81.34,17.53.02,35.06.01,52.58.02.45,0,.91,0,1.35.06.91.14,1.41.71,1.44,1.61.03.91-.47,1.5-1.34,1.71-.39.1-.82.08-1.23.08-8.97,0-17.94,0-26.91,0Z"/>
  <path class="cls-2" d="M80.6,30.65c.26,5.59-1.33,10.95-5.12,15.6-1.96,2.4-4.37,4.24-7.07,5.73-1.12.62-2.18,1.37-3.35,1.87-.62.27-1.58.41-2.12.11-3.54-1.91-7.15-3.74-9.9-6.81-3.75-4.18-5.71-9.06-5.88-14.65-.05-1.77,0-3.54-.02-5.31-.01-1.05.44-1.8,1.34-2.31,4.69-2.71,9.39-5.42,14.08-8.13.9-.52,1.78-.49,2.67.03,4.66,2.69,9.32,5.39,13.98,8.07.94.54,1.41,1.3,1.39,2.4-.02,1.02,0,2.04,0,3.42ZM77.18,30.71c0-.79.06-1.59-.03-2.37-.04-.37-.3-.86-.6-1.05-3.99-2.35-8-4.67-12.03-6.95-.32-.18-.9-.21-1.21-.04-4.06,2.3-8.1,4.64-12.13,6.99-.27.16-.6.55-.59.82.13,2.74,0,5.54.56,8.2,1.21,5.85,4.9,9.86,10.03,12.83,2.01,1.17,3.38,1.15,5.39,0,7.21-4.12,10.71-10.2,10.61-18.44Z"/>
  <path class="cls-1" d="M95.86,85.22c.81-2.62,1.52-4.91,2.21-7.21.29-.97.73-1.81,1.87-1.79,1.06.02,1.5.81,1.77,1.76.61,2.09,1.28,4.16,1.94,6.24.09.27.2.53.39,1.02.52-2.59.99-4.93,1.47-7.28.25-1.21,1.02-1.87,1.98-1.71,1.06.18,1.62,1.01,1.38,2.31-.82,4.32-1.68,8.63-2.56,12.94-.2.97-.82,1.62-1.86,1.67-1.08.06-1.78-.48-2.1-1.51-.78-2.51-1.56-5.02-2.4-7.74-.22.55-.38.91-.5,1.28-.65,2.08-1.27,4.17-1.92,6.25-.38,1.23-1.13,1.81-2.19,1.72-1.15-.1-1.68-.81-1.89-1.9-.84-4.31-1.73-8.62-2.57-12.93-.19-.98.37-1.84,1.29-2.08.89-.24,1.8.29,2.03,1.32.49,2.2.9,4.42,1.35,6.63.05.25.15.48.32,1.01Z"/>
  <path class="cls-1" d="M62.38,83.87c0,1.45,0,2.9,0,4.35,0,1.02.02,2.04-.01,3.05-.04,1.24-.7,1.94-1.75,1.91-1.02-.02-1.68-.77-1.68-2-.02-3.28,0-6.56,0-9.84,0-.94.02-1.88,0-2.83-.03-1.03.21-1.89,1.33-2.21,1.02-.29,1.6.33,2.12,1.09,1.79,2.61,3.59,5.21,5.39,7.81.14.2.3.39.6.77,0-2.56,0-4.88,0-7.19,0-1.72.52-2.55,1.66-2.58,1.2-.03,1.88.88,1.88,2.55,0,3.84,0,7.69,0,11.53,0,.3-.01.6-.03.9-.07.92-.52,1.57-1.43,1.82-.88.24-1.55-.17-2.04-.86-1.64-2.34-3.26-4.7-4.89-7.05-.29-.42-.59-.84-.88-1.27-.08.02-.16.04-.24.05Z"/>
  <path class="cls-1" d="M73.34,84.74c-.01-4.68,3.76-8.51,8.41-8.55,4.68-.03,8.57,3.86,8.56,8.55,0,4.65-3.83,8.46-8.51,8.46-4.69,0-8.46-3.76-8.47-8.46ZM81.86,89.76c2.77-.01,5.02-2.27,5.03-5.04,0-2.8-2.32-5.1-5.13-5.06-2.79.04-5,2.26-5,5.05,0,2.83,2.26,5.06,5.1,5.05Z"/>
  <path class="cls-1" d="M43.64,91.76c-.36.39-.72,1.13-1.23,1.25-.57.14-1.29-.23-1.92-.47-.18-.07-.27-.43-.37-.67q-.83-1.96-3.01-1.96c-.26,0-.53.03-.79,0-1.84-.27-3.24.01-3.7,2.21-.2.97-1.32,1.3-2.21.95-.91-.37-1.25-1.32-.81-2.49,1.5-3.97,3.02-7.92,4.53-11.88.13-.35.26-.71.4-1.05.35-.89,1-1.44,1.96-1.43.96.01,1.6.57,1.94,1.46.94,2.49,1.88,4.99,2.82,7.48.68,1.79,1.35,3.58,2.02,5.37.12.31.19.64.37,1.23ZM36.47,82.22c-.59,1.56-1.06,2.81-1.56,4.13h3.1c-.5-1.35-.96-2.56-1.54-4.13Z"/>
  <path class="cls-1" d="M22.23,87.26c0,1.45.01,2.69,0,3.93-.02,1.22-.67,1.97-1.68,1.99-1.05.02-1.73-.68-1.73-1.91-.02-4.36-.02-8.73,0-13.1,0-1.19.55-1.93,1.59-1.95,1.69-.04,3.4-.1,5.06.17,2.74.45,4.64,3.02,4.46,5.68-.2,2.82-2.46,5.04-5.31,5.18-.74.04-1.49,0-2.37,0ZM22.3,83.83c1.45,0,3.04.5,3.84-1.11.29-.57.15-1.56-.17-2.18-.49-.96-2.15-1.17-3.68-.69v3.98Z"/>
  <path class="cls-1" d="M49.05,81.41c.92-1.4,1.77-2.72,2.64-4.03.77-1.16,1.73-1.44,2.64-.8.86.6.94,1.55.22,2.69-.1.16-.21.31-.31.47-1.13,1.74-2.68,3.35-3.26,5.25-.58,1.9-.2,4.09-.24,6.16-.02,1.3-.68,2.06-1.74,2.03-1.05-.02-1.64-.72-1.65-1.99-.01-1.51-.06-3.02.03-4.52.06-1.12-.25-2.03-.89-2.93-1.04-1.48-2-3.01-2.98-4.53-.71-1.11-.61-2.1.25-2.69.92-.63,1.85-.34,2.64.84.87,1.31,1.73,2.64,2.65,4.05Z"/>
  <path class="cls-2" d="M62.98,37.55c2.11-2.37,4.1-4.67,6.17-6.91.42-.46,1.11-.9,1.68-.91.5,0,1.26.53,1.43,1,.19.52.03,1.38-.32,1.83-1.08,1.4-2.31,2.68-3.49,4-1.28,1.44-2.54,2.88-3.83,4.3-1.12,1.24-2.01,1.27-3.14.09-1.67-1.74-3.34-3.48-4.98-5.24-.92-.98-.97-1.93-.19-2.67.8-.75,1.71-.66,2.66.32,1.31,1.35,2.6,2.71,4.01,4.18Z"/>
</svg>