<?xml version="1.0" encoding="UTF-8"?>
<svg id="Layer_1" xmlns="http://www.w3.org/2000/svg" viewBox="0 0 66.07 70.68">
  <defs>
    <style>
      .cls-1 {
        fill: #fff;
      }

      .cls-2 {
        fill: #efbb60;
      }

      .cls-3 {
        fill: #efbc61;
      }
    </style>
  </defs>
  <path class="cls-1" d="M20.26,48.27c-1.16-1.41-1.83-2.89-1.72-4.65.12-1.99.86-3.65,2.56-4.79.28-.18.35-.37.35-.68-.01-2.13-.01-4.25,0-6.38.02-5.33,4.21-10.05,9.52-10.74,6.02-.78,11.32,3.01,12.52,8.96.04.2.08.4.07.6-.03,1.08.43,1.95.98,2.86,1.37,2.26,1.24,4.7.62,7.15-.22.87-.38,1.76-.52,2.65-.13.82.11,1.45.75,1.96.39.32.76.65,1.14.98.71.61,1.33,1.29,1.66,2.18.16.42.48.38.78.36.34-.02.46-.29.46-.6,0-2.75,0-5.5,0-8.25,0-.21-.09-.33-.22-.46-.3-.29-.6-.59-.89-.9-1.33-1.4-1.04-3.52.62-4.46.36-.21.5-.41.5-.82.02-1.42,1.3-2.66,2.72-2.69.72-.02,1.45-.01,2.17,0,1.53.02,2.81,1.27,2.81,2.8,0,5.42.03,10.84,0,16.26-.03,3.74-3.58,6.94-7.33,6.63-1.72-.14-3.43-.39-5.16-.59-.11.19-.05.42-.05.63,0,2.81-.02,5.62,0,8.43,0,.47-.13.54-.57.54-7.36-.01-14.72-.01-22.08,0-.46,0-.55-.12-.55-.56.02-2.85,0-5.7.02-8.55,0-.41-.05-.52-.51-.46-1.49.22-2.98.4-4.48.53-4.09.35-7.56-2.83-7.56-6.92-.01-5.28,0-10.56,0-15.83,0-1.64,1.25-2.89,2.89-2.9.64,0,1.29,0,1.93,0,1.62.01,2.86,1.21,2.9,2.83,0,.29.08.45.35.6,1.86,1.04,2.18,3.21.61,4.67-.74.69-1.01,1.39-.98,2.39.07,2.29.02,4.58.02,6.86,0,.77.2.92.95.79.87-.15,1.74-.27,2.7-.42ZM45.83,48.28c-.51-.62-1.07-1.03-1.61-1.48-1.1-.92-1.71-2.02-1.56-3.51.12-1.2.39-2.37.66-3.53.46-1.93.48-3.81-.6-5.57-.36-.6-.99-2.39-1.09-3.07-.01-.1-.03-.2-.04-.3-.53-5.08-5.77-8.87-10.78-7.79-4.5.97-7.45,4.59-7.46,9.19,0,2.43,0,4.86,0,7.28,0,.34-.1.48-.42.59-.95.3-1.62.94-2.02,1.84-.71,1.59-.63,3.12.41,4.54,1.28,1.75,3.06,2.85,4.96,3.82.41.21,1.08.31,1.18.61.12.36-.27.87-.4,1.33-.11.38-.27.44-.64.27-1.19-.53-2.34-1.13-3.43-1.85-.16-.11-.37-.35-.47.05-.23.92-.2,1.8.46,2.55.33.38.69.73,1.05,1.07.88.82,1.84,1.56,2.5,2.6.17.27.32.13.49.01,1.01-.69,1.89-1.51,2.42-2.63.94-1.96,1.08-3.92-.84-5.55-.09-.08-.16-.18-.26-.25-.36-.26-.42-.51-.04-.82.25-.2.44-.47.57-.77.32-.72.24-.96-.38-1.43-1.96-1.46-3.11-3.4-3.19-5.85-.08-2.43-.01-4.86-.03-7.28,0-.3.09-.46.34-.62,1.05-.67,2.08-1.36,3.1-2.07.31-.22.52-.23.84,0,1.89,1.3,4,1.88,6.29,1.87,1.47,0,2.94.02,4.4-.01.41,0,.49.12.49.5-.02,2.31-.03,4.62,0,6.92.04,2.43-.83,4.45-2.63,6.08-.19.17-.3.35-.28.62.02.34.04.69,0,1.02-.04.35.13.44.43.48.79.11,1.59.24,2.38.36,1.7.26,3.4.52,5.19.79ZM36,56.09s-.09.05-.13.07c.29,2.24.6,4.48.86,6.73.05.39.17.44.51.43,1.61-.02,3.22-.03,4.83,0,.48,0,.63-.09.63-.61-.03-2.83,0-5.66-.02-8.49,0-.43.08-.56.54-.57,2.02-.04,4.01.29,5.99.59,3.15.47,5.96-1.75,6.02-4.93.05-2.91,0-5.82.02-8.73,0-.31-.07-.41-.4-.4-.98.02-1.97.03-2.96,0-.42-.01-.53.1-.53.52.02,2.53.02,5.06,0,7.59,0,1.35-1.07,2.4-2.41,2.39-.56,0-1.12-.11-1.67-.19-2.5-.38-5-.75-7.49-1.15-.38-.06-.53.04-.6.4-.24,1.13-.49,2.27-.74,3.4-.32,1.45-.65,2.89-1.01,4.49-.54-.58-.98-1.05-1.43-1.53ZM27.22,36.65c.06,1.05-.08,2.31.11,3.57.4,2.65,2.89,4.77,5.66,4.79,2.79.02,5.35-2.12,5.7-4.8.28-2.15.05-4.32.12-6.49.01-.35-.22-.26-.4-.27-.96,0-1.93,0-2.89,0-2.11.01-4.08-.51-5.93-1.5-.5-.27-2.33.79-2.36,1.36,0,.08,0,.16,0,.24,0,.96,0,1.92,0,3.1ZM20.6,50.2c-.94.15-1.82.28-2.71.43-1.93.34-3.22-.72-3.22-2.67,0-2.43,0-4.85,0-7.28,0-.38-.08-.51-.49-.5-1,.03-2.01.02-3.01,0-.28,0-.38.06-.38.36.01,2.97-.05,5.94.03,8.9.08,2.8,2.36,4.92,5.16,4.83,1.28-.04,2.55-.27,3.82-.42.34-.04.81.02.97-.18.22-.26-.15-.63-.23-.96-.2-.83-.07-1.66.03-2.53ZM23.36,56.36c0,2.25,0,4.4,0,6.54,0,.35.11.43.44.42,1.65-.02,3.29-.02,4.94,0,.4,0,.51-.12.54-.5.11-1.6.24-3.19.36-4.79.02-.21,0-.41,0-.74-1.08,1.07-2.28,1.74-3.51,2.37-.38.19-.5.12-.6-.27-.31-1.26-1.08-2.19-2.17-3.04ZM34.79,63.32c-.36-2.89-.72-5.72-1.06-8.56-.08-.7-.25-1.3-.84-1.76-.24-.19-.46-.34-.74-.26-.32.09-.19.4-.21.61-.17,2-.32,4-.47,5.99-.09,1.18-.18,2.36-.26,3.54-.01.19-.13.45.27.45,1.1-.02,2.21,0,3.32,0ZM13,38.27c.3,0,.61-.05.9,0,1.01.2,1.7-.26,2.32-.99.55-.65.53-1.3-.26-1.59-1.08-.39-1.46-1.02-1.31-2.14.09-.67-.38-1.05-1.08-1.07-.54-.01-1.08-.01-1.63,0-.73.01-1.12.38-1.13,1.11-.01,1.42,0,2.85,0,4.27,0,.3.06.42.39.41.6-.03,1.2,0,1.81,0ZM55.22,35.73c0-.72.01-1.44,0-2.16-.01-.65-.37-1.04-.98-1.07-.64-.03-1.29-.03-1.93,0-.56.03-1.01.43-.93.97.19,1.24-.32,1.89-1.45,2.3-.61.22-.67.9-.22,1.4.29.33.63.62.93.94.14.15.3.16.49.16,1.23,0,2.45-.02,3.68,0,.35,0,.43-.11.42-.44-.02-.7,0-1.4,0-2.1ZM35.85,46.42c-1.53.54-3.08.71-4.66.29-.05-.01-.12-.02-.17,0-.17.09-.37,1.31-.24,1.46.53.62.9,1.32,1.11,2.1.16.62.49.71.97.24.81-.8,1.59-1.64,2.44-2.41.5-.46.77-.94.55-1.69ZM36.3,53.69c.37-1.66.7-3.17,1.04-4.69-.05-.03-.09-.05-.14-.08-.88.89-1.77,1.78-2.66,2.68-.11.11-.11.2,0,.3.56.56,1.11,1.13,1.75,1.79Z"/>
  <path class="cls-2" d="M46.78,25.38c-.22.02-.31-.13-.42-.24-1.04-1.03-2.07-2.08-3.12-3.1-.23-.23-.25-.41-.1-.68.26-.47.47-.97.74-1.45.18-.33.08-.46-.24-.55-.52-.15-1.03-.35-1.55-.5-.3-.09-.4-.24-.4-.55.02-1.46.02-2.93,0-4.39,0-.35.12-.5.44-.59.52-.15,1.03-.34,1.55-.5.3-.09.38-.22.22-.52-.27-.49-.49-1.01-.76-1.5-.14-.26-.11-.43.1-.63,1.06-1.04,2.11-2.09,3.15-3.15.23-.24.42-.22.69-.08.48.26.98.47,1.45.74.29.16.43.1.52-.21.16-.52.35-1.02.5-1.54.09-.31.23-.45.58-.44,1.47.02,2.93.02,4.4,0,.31,0,.47.09.56.39.14.48.35.94.46,1.43.12.51.34.54.75.29.39-.24.84-.4,1.23-.63.34-.21.56-.13.83.15.98,1.01,1.97,2,2.99,2.98.29.28.31.5.12.83-.25.43-.44.9-.69,1.34-.2.35-.09.49.26.59.52.15,1.03.34,1.55.5.27.08.37.22.37.51-.02,1.48-.02,2.97,0,4.45,0,.32-.12.46-.41.55-.52.15-1.03.34-1.55.5-.32.1-.41.24-.23.56.27.49.49,1.01.76,1.5.13.24.1.4-.09.58-1.07,1.06-2.14,2.12-3.2,3.19-.22.22-.39.2-.64.07-.48-.26-.98-.47-1.45-.74-.31-.17-.46-.11-.56.22-.15.52-.35,1.03-.5,1.54-.08.29-.22.42-.54.41-1.49-.02-2.98-.02-4.46,0-.29,0-.44-.09-.52-.36-.14-.48-.36-.94-.46-1.43-.12-.56-.36-.55-.78-.3-.39.24-.82.42-1.24.62-.11.05-.22.1-.31.14ZM47.5,16.06c0,2.67,2.13,4.85,4.77,4.86,2.68.01,4.87-2.11,4.88-4.75.01-2.71-2.12-4.88-4.8-4.89-2.67,0-4.85,2.13-4.85,4.78Z"/>
  <path class="cls-1" d="M3.08,15.21c0-5.51,3.57-9.39,7.92-9.69,4.65-.32,8.69,2.81,9.34,7.28.52,3.58-.76,6.44-3.69,8.55-.7.51-1.02,1.13-1.03,1.97,0,.8.1,1.6-.1,2.39-.5,1.92-2.3,3.15-4.27,2.9-1.88-.23-3.32-1.89-3.34-3.81-.02-2.22.22-2.6-1.82-4.13-2.1-1.57-2.98-3.9-3-5.47ZM12.74,16.95c0,1.84,0,3.69,0,5.53,0,.22,0,.44.3.36.23-.07.62.27.69-.28.17-1.25.85-2.14,1.87-2.87,2.22-1.6,3.19-3.78,2.83-6.52-.5-3.83-4.42-6.5-8.17-5.55-2.77.7-4.54,2.48-5.09,5.25-.56,2.83.45,5.17,2.82,6.85.97.69,1.64,1.55,1.79,2.72.08.58.44.36.72.4.43.05.29-.28.29-.48,0-1.8,0-3.61,0-5.41.64.13,1.29.13,1.93,0ZM9.87,24.78c.11,1.12.81,1.85,1.81,1.92.91.06,1.79-.64,1.99-1.57.05-.25.04-.36-.26-.36-1.18.01-2.35,0-3.53,0Z"/>
  <path class="cls-1" d="M33.02,19c-3.75,0-6.76-3.01-6.76-6.76,0-3.74,3.03-6.74,6.79-6.73,3.72,0,6.73,3.01,6.73,6.73,0,3.75-3,6.76-6.76,6.76ZM33.01,17.07c2.63,0,4.84-2.21,4.83-4.83-.01-2.6-2.18-4.78-4.79-4.8-2.63-.02-4.84,2.17-4.86,4.8-.01,2.62,2.19,4.83,4.82,4.83Z"/>
  <path class="cls-1" d="M47.5,16.06c0-2.64,2.18-4.78,4.85-4.78,2.68,0,4.82,2.18,4.8,4.89-.01,2.63-2.2,4.76-4.88,4.75-2.64-.01-4.78-2.19-4.77-4.86ZM55.22,16.1c0-1.56-1.33-2.88-2.88-2.88-1.58,0-2.93,1.35-2.9,2.92.02,1.56,1.36,2.87,2.91,2.85,1.56-.01,2.88-1.34,2.87-2.89Z"/>
  <path class="cls-3" d="M10.81,16.95c-1.99-.84-2.29-2.83-1.62-4.11.59-1.12,1.79-1.73,3.07-1.55,1.13.16,2.18,1.19,2.39,2.33.22,1.21-.35,2.45-1.43,3.07-.16.09-.32.17-.48.25-.64.13-1.29.13-1.93,0Z"/>
  <path class="cls-1" d="M36.58,10.99c-.08.1-.15.2-.23.28-1.35,1.35-2.7,2.69-4.04,4.04-.21.22-.33.19-.52-.01-.68-.7-1.38-1.4-2.09-2.08-.26-.25-.21-.4.03-.61.36-.32.66-.87,1.05-.94.38-.07.67.54.99.85.22.22.35.23.57,0,.85-.88,1.73-1.73,2.59-2.6.23-.23.38-.29.61-.02.26.3.56.57.84.86.07.07.13.15.21.23Z"/>
</svg>